<svg xmlns="http://www.w3.org/2000/svg" width="1600" height="1000" viewBox="0 0 1600 1000" role="img" aria-label="Quiet lapis garden table with charbagh water channels and floral-inlay borders">
    <title>Garden at blue hour</title>
    <defs><radialGradient id="table" cx=".48" cy=".3" r=".88"><stop stop-color="#254d68"/><stop offset=".55" stop-color="#173b53"/><stop offset="1" stop-color="#102637"/></radialGradient></defs>
    <rect width="1600" height="1000" fill="url(#table)"/>
    <rect x="20" y="20" width="1560" height="960" rx="12" fill="none" stroke="#d2bd82" stroke-width="1.5" opacity=".22"/>
    <rect x="28" y="28" width="1544" height="944" rx="8" fill="none" stroke="#82b9ae" stroke-width="1" opacity=".17"/>
    <g opacity=".055">
      <path d="M797 675V972H831V675ZM548 835H1080V867H548Z" fill="#9ed7ce"/>
      <rect x="583" y="713" width="183" height="98" rx="20" fill="#74a889"/><rect x="860" y="713" width="183" height="98" rx="20" fill="#74a889"/>
      <rect x="583" y="890" width="183" height="75" rx="20" fill="#74a889"/><rect x="860" y="890" width="183" height="75" rx="20" fill="#74a889"/>
      <circle cx="814" cy="851" r="51" fill="none" stroke="#e6dbc1" stroke-width="10"/><circle cx="814" cy="851" r="31" fill="#87c6c4" />
      <g transform="translate(1390 964) scale(2.5)" fill="#ede4c7">
    <path d="M-42 0V-9H-35V-43H-42V-49H42V-43H35V-9H42V0Z"/>
    <path d="M-26-52Q-33-67-17-76Q-3-81 0-91Q4-80 18-76Q32-66 26-52Z"/>
    <path d="M-48-50H48V-45H-48Z"/><path d="M-49-50L-40-57L-31-50ZM31-50L40-57L49-50Z"/>
    <path d="M0-98V-89" fill="none" stroke="#b38a38" stroke-width="2" />
    <path d="M-32-9V-29Q-32-39 -24-42Q-16-39 -16-29V-9Z" fill="#3b7880" /><path d="M-8-9V-29Q-8-39 0-42Q8-39 8-29V-9Z" fill="#3b7880" /><path d="M16-9V-29Q16-39 24-42Q32-39 32-29V-9Z" fill="#3b7880" />
    <path d="M-37-6H37M-30-46H30" fill="none" stroke="#b38a38" stroke-width="1" />
  </g><g transform="translate(1190 967) scale(3.6)">
    <path d="M0-56Q-3-39-12-23Q-23-3-3 1L3 1Q22-3 12-23Q3-40 0-56Z" fill="#b4c9a7" />
    <path d="M0-43V8M0-16L-8-24M0-25L6-34" fill="none" stroke="#c1d5aa" stroke-width="1" opacity=".35"/>
  </g><g transform="translate(1527 963) scale(2.5)">
    <path d="M0-56Q-3-39-12-23Q-23-3-3 1L3 1Q22-3 12-23Q3-40 0-56Z" fill="#b4c9a7" />
    <path d="M0-43V8M0-16L-8-24M0-25L6-34" fill="none" stroke="#c1d5aa" stroke-width="1" opacity=".35"/>
  </g>
    </g>
    <g opacity=".19"><g transform="translate(69 89) scale(-1.32 1.32)">
    <path d="M0 21Q-3 0 2-20M-1 10L-12 0M0 0L12-10" fill="none" stroke="#467d6d" stroke-width="1.5" />
    <path d="M-2 10Q-19 10-17-1Q-4-1-2 10ZM1 1Q19-1 17-11Q4-12 1 1Z" fill="#548b73" stroke="#2b655c" stroke-width=".5"/>
    <path d="M-6 21Q-17 17-16 10Q-4 11-6 21Z" fill="#75a58c" />
    <g transform="translate(2 -20) scale(0.7)"><g transform="rotate(0)"><path d="M0 1C-11-1-9-13-2-10C1-15 9-8 5-3Z" fill="#bea979" stroke="#f9e6bc" stroke-width=".7"/></g><g transform="rotate(72)"><path d="M0 1C-11-1-9-13-2-10C1-15 9-8 5-3Z" fill="#bea979" stroke="#f9e6bc" stroke-width=".7"/></g><g transform="rotate(144)"><path d="M0 1C-11-1-9-13-2-10C1-15 9-8 5-3Z" fill="#bea979" stroke="#f9e6bc" stroke-width=".7"/></g><g transform="rotate(216)"><path d="M0 1C-11-1-9-13-2-10C1-15 9-8 5-3Z" fill="#bea979" stroke="#f9e6bc" stroke-width=".7"/></g><g transform="rotate(288)"><path d="M0 1C-11-1-9-13-2-10C1-15 9-8 5-3Z" fill="#bea979" stroke="#f9e6bc" stroke-width=".7"/></g><circle cx="0" cy="0" r="3" fill="#e7c970" /><circle cx="-0.6" cy="-0.6" r="0.8" fill="#fff8dd" /></g>
  </g><g transform="translate(69 913) scale(-1.32 1.32)">
    <path d="M0 21Q-3 0 2-20M-1 10L-12 0M0 0L12-10" fill="none" stroke="#467d6d" stroke-width="1.5" />
    <path d="M-2 10Q-19 10-17-1Q-4-1-2 10ZM1 1Q19-1 17-11Q4-12 1 1Z" fill="#548b73" stroke="#2b655c" stroke-width=".5"/>
    <path d="M-6 21Q-17 17-16 10Q-4 11-6 21Z" fill="#75a58c" />
    <g transform="translate(2 -20) scale(0.7)"><g transform="rotate(0)"><path d="M0 1C-11-1-9-13-2-10C1-15 9-8 5-3Z" fill="#bea979" stroke="#f9e6bc" stroke-width=".7"/></g><g transform="rotate(72)"><path d="M0 1C-11-1-9-13-2-10C1-15 9-8 5-3Z" fill="#bea979" stroke="#f9e6bc" stroke-width=".7"/></g><g transform="rotate(144)"><path d="M0 1C-11-1-9-13-2-10C1-15 9-8 5-3Z" fill="#bea979" stroke="#f9e6bc" stroke-width=".7"/></g><g transform="rotate(216)"><path d="M0 1C-11-1-9-13-2-10C1-15 9-8 5-3Z" fill="#bea979" stroke="#f9e6bc" stroke-width=".7"/></g><g transform="rotate(288)"><path d="M0 1C-11-1-9-13-2-10C1-15 9-8 5-3Z" fill="#bea979" stroke="#f9e6bc" stroke-width=".7"/></g><circle cx="0" cy="0" r="3" fill="#e7c970" /><circle cx="-0.6" cy="-0.6" r="0.8" fill="#fff8dd" /></g>
  </g><g transform="translate(1531 89) scale(1.32 1.32)">
    <path d="M0 21Q-3 0 2-20M-1 10L-12 0M0 0L12-10" fill="none" stroke="#467d6d" stroke-width="1.5" />
    <path d="M-2 10Q-19 10-17-1Q-4-1-2 10ZM1 1Q19-1 17-11Q4-12 1 1Z" fill="#548b73" stroke="#2b655c" stroke-width=".5"/>
    <path d="M-6 21Q-17 17-16 10Q-4 11-6 21Z" fill="#75a58c" />
    <g transform="translate(2 -20) scale(0.7)"><g transform="rotate(0)"><path d="M0 1C-11-1-9-13-2-10C1-15 9-8 5-3Z" fill="#bea979" stroke="#f9e6bc" stroke-width=".7"/></g><g transform="rotate(72)"><path d="M0 1C-11-1-9-13-2-10C1-15 9-8 5-3Z" fill="#bea979" stroke="#f9e6bc" stroke-width=".7"/></g><g transform="rotate(144)"><path d="M0 1C-11-1-9-13-2-10C1-15 9-8 5-3Z" fill="#bea979" stroke="#f9e6bc" stroke-width=".7"/></g><g transform="rotate(216)"><path d="M0 1C-11-1-9-13-2-10C1-15 9-8 5-3Z" fill="#bea979" stroke="#f9e6bc" stroke-width=".7"/></g><g transform="rotate(288)"><path d="M0 1C-11-1-9-13-2-10C1-15 9-8 5-3Z" fill="#bea979" stroke="#f9e6bc" stroke-width=".7"/></g><circle cx="0" cy="0" r="3" fill="#e7c970" /><circle cx="-0.6" cy="-0.6" r="0.8" fill="#fff8dd" /></g>
  </g><g transform="translate(1531 913) scale(1.32 1.32)">
    <path d="M0 21Q-3 0 2-20M-1 10L-12 0M0 0L12-10" fill="none" stroke="#467d6d" stroke-width="1.5" />
    <path d="M-2 10Q-19 10-17-1Q-4-1-2 10ZM1 1Q19-1 17-11Q4-12 1 1Z" fill="#548b73" stroke="#2b655c" stroke-width=".5"/>
    <path d="M-6 21Q-17 17-16 10Q-4 11-6 21Z" fill="#75a58c" />
    <g transform="translate(2 -20) scale(0.7)"><g transform="rotate(0)"><path d="M0 1C-11-1-9-13-2-10C1-15 9-8 5-3Z" fill="#bea979" stroke="#f9e6bc" stroke-width=".7"/></g><g transform="rotate(72)"><path d="M0 1C-11-1-9-13-2-10C1-15 9-8 5-3Z" fill="#bea979" stroke="#f9e6bc" stroke-width=".7"/></g><g transform="rotate(144)"><path d="M0 1C-11-1-9-13-2-10C1-15 9-8 5-3Z" fill="#bea979" stroke="#f9e6bc" stroke-width=".7"/></g><g transform="rotate(216)"><path d="M0 1C-11-1-9-13-2-10C1-15 9-8 5-3Z" fill="#bea979" stroke="#f9e6bc" stroke-width=".7"/></g><g transform="rotate(288)"><path d="M0 1C-11-1-9-13-2-10C1-15 9-8 5-3Z" fill="#bea979" stroke="#f9e6bc" stroke-width=".7"/></g><circle cx="0" cy="0" r="3" fill="#e7c970" /><circle cx="-0.6" cy="-0.6" r="0.8" fill="#fff8dd" /></g>
  </g></g>
    <g opacity=".12"><polygon points="800.00,25.00 803.33,31.96 810.61,29.39 808.04,36.67 815.00,40.00 808.04,43.33 810.61,50.61 803.33,48.04 800.00,55.00 796.67,48.04 789.39,50.61 791.96,43.33 785.00,40.00 791.96,36.67 789.39,29.39 796.67,31.96" fill="#356674" stroke="#b38a38" stroke-width="1.3"/><polygon points="800.00,945.00 803.33,951.96 810.61,949.39 808.04,956.67 815.00,960.00 808.04,963.33 810.61,970.61 803.33,968.04 800.00,975.00 796.67,968.04 789.39,970.61 791.96,963.33 785.00,960.00 791.96,956.67 789.39,949.39 796.67,951.96" fill="#356674" stroke="#b38a38" stroke-width="1.3"/></g>
    <path d="M116 41H743M857 41H1484M116 959H743M857 959H1484" fill="none" stroke="#d5c18a" stroke-width="1" opacity=".16"/>
  </svg>